HIERARCHY
ROOT Hips
{
	OFFSET 0.000000 0.000000 0.000000 
	CHANNELS 6 Xposition Yposition Zposition Zrotation Yrotation Xrotation
	JOINT LeftUpLeg
	{
		OFFSET 1.363060 -1.794630 0.839290 
		CHANNELS 3 Zrotation Yrotation Xrotation
		JOINT LeftLeg
		{
			OFFSET 2.448110 -6.726130 0.000000 
			CHANNELS 3 Zrotation Yrotation Xrotation
			JOINT LeftFoot
			{
				OFFSET 2.562200 -7.039590 0.000000 
				CHANNELS 3 Zrotation Yrotation Xrotation
				JOINT LeftToeBase
				{
					OFFSET 0.157640 -0.433110 2.322550 
					CHANNELS 3 Zrotation Yrotation Xrotation
					End Site
					{
						OFFSET 0.000000 0.000000 0.000000 
					}
				}
			}
		}
	}
	JOINT RightUpLeg
	{
		OFFSET -1.305520 -1.794630 0.839290 
		CHANNELS 3 Zrotation Yrotation Xrotation
		JOINT RightLeg
		{
			OFFSET -2.542530 -6.985550 0.000000 
			CHANNELS 3 Zrotation Yrotation Xrotation
			JOINT RightFoot
			{
				OFFSET -2.568260 -7.056230 0.000000 
				CHANNELS 3 Zrotation Yrotation Xrotation
				JOINT RightToeBase
				{
					OFFSET -0.164730 -0.452590 2.363150 
					CHANNELS 3 Zrotation Yrotation Xrotation
					End Site
					{
						OFFSET 0.000000 0.000000 0.000000 
					}
				}
			}
		}
	}
	JOINT Spine
	{
		OFFSET 0.028270 2.035590 -0.193380 
		CHANNELS 3 Zrotation Yrotation Xrotation
		JOINT Spine1
		{
			OFFSET 0.056720 2.048850 -0.042750 
			CHANNELS 3 Zrotation Yrotation Xrotation
			JOINT Neck1
			{
				OFFSET -0.054170 1.746240 0.172020 
				CHANNELS 3 Zrotation Yrotation Xrotation
				JOINT Head
				{
					OFFSET 0.104070 1.761360 -0.123970 
					CHANNELS 3 Zrotation Yrotation Xrotation
					End Site
					{
						OFFSET 0.000000 0.000000 0.000000 
					}
				}
			}
			JOINT LeftArm
			{
				OFFSET 3.362410 1.200890 -0.311210 
				CHANNELS 3 Zrotation Yrotation Xrotation
				JOINT LeftForeArm
				{
					OFFSET 4.983000 -0.000000 -0.000000 
					CHANNELS 3 Zrotation Yrotation Xrotation
					JOINT LeftHand
					{
						OFFSET 3.483560 -0.000000 -0.000000 
						CHANNELS 3 Zrotation Yrotation Xrotation
						JOINT LeftHandIndex1
						{
							OFFSET 0.715260 -0.000000 -0.000000 
							CHANNELS 3 Zrotation Yrotation Xrotation
							End Site
							{
								OFFSET 0.000000 0.000000 0.000000 
							}
						}
					}
				}
			}
			JOINT RightArm
			{
				OFFSET -3.136600 1.374050 -0.404650 
				CHANNELS 3 Zrotation Yrotation Xrotation
				JOINT RightForeArm
				{
					OFFSET -5.241900 -0.000000 -0.000000 
					CHANNELS 3 Zrotation Yrotation Xrotation
					JOINT RightHand
					{
						OFFSET -3.444170 -0.000000 -0.000000 
						CHANNELS 3 Zrotation Yrotation Xrotation
						JOINT RightHandIndex1
						{
							OFFSET -0.622530 -0.000000 -0.000000 
							CHANNELS 3 Zrotation Yrotation Xrotation
							End Site
							{
								OFFSET 0.000000 0.000000 0.000000 
							}
						}
					}
				}
			}
		}
	}
}
MOTION
Frames: 9
Frame Time: 0.041667
-11.282241 17.884529 -9.785065 -2.810786 34.943940 0.657829 -10.151888 -7.911157 -17.196766 3.823057 13.023020 40.158098 -0.018245 -0.124131 0.742221 0.499000 -4.528900 -12.569800 26.451615 0.574598 -6.200547 -1.013953 -7.321255 22.394995 0.477964 -4.122876 -6.380064 -0.306600 -3.559800 9.841300 2.279350 1.116606 1.437143 0.099487 0.495677 -4.215618 5.936264 -6.933991 22.892430 4.147300 -3.834600 14.980100 -84.654541 -0.067669 21.183371 14.489954 -20.264869 -3.065690 -1.414510 -2.213166 5.729031 -7.125000 0.000000 0.000000 83.906175 2.509154 14.692033 -14.839246 21.931810 -3.050143 0.368136 -0.195558 11.843655 7.125000 0.000000 0.000000 
-11.292264 17.884730 -9.771033 -2.913816 35.101426 0.476435 -9.921478 -8.197385 -17.757185 4.113213 13.316600 41.245048 0.012943 -0.509557 1.771816 0.210600 -2.954900 -8.153100 26.649260 0.432672 -5.946788 -0.980861 -7.227920 22.144083 0.513821 -4.263641 -6.275790 -0.333900 -3.713700 10.272600 2.240572 1.165567 1.486124 -0.080754 0.523712 -4.244938 5.877916 -6.969047 22.973811 4.087100 -3.833900 15.005900 -84.478873 -0.083511 21.467737 14.558397 -20.371342 -3.100747 -1.404937 -2.221063 5.389282 -7.125000 0.000000 0.000000 83.970579 2.446600 14.865803 -14.880426 21.991731 -3.067746 0.374302 -0.194724 11.547057 7.125000 0.000000 0.000000 
-11.298879 17.885732 -9.756501 -2.941647 35.200846 0.375202 -9.808150 -8.294489 -18.407696 4.400620 13.600421 42.309197 0.033308 -0.804502 2.891704 0.098300 -2.021600 -5.565500 26.739684 0.302396 -5.777187 -0.956511 -7.155083 21.954254 0.518284 -4.273548 -6.243814 -0.372000 -3.917300 10.844100 2.186744 1.218723 1.501579 -0.285140 0.553783 -4.335841 5.830070 -7.012499 23.089521 4.058900 -3.854100 15.062500 -84.366919 -0.062603 21.637101 14.609038 -20.447872 -3.125438 -1.406285 -2.231713 5.386392 -7.125000 0.000000 0.000000 84.038110 2.312867 15.074789 -14.954953 22.099062 -3.099930 0.377776 -0.192634 11.383077 7.125000 0.000000 0.000000 
-11.302387 17.885632 -9.744373 -2.999506 35.240777 0.259625 -9.709671 -8.322100 -19.059453 4.681298 13.872160 43.338891 0.055453 -1.079552 3.841019 0.053700 -1.495200 -4.112500 26.831330 0.132618 -5.630697 -0.934921 -7.080336 21.763245 0.492241 -4.116149 -6.038829 -0.420200 -4.160400 11.528300 2.150335 1.279071 1.528886 -0.484199 0.582604 -4.413816 6.085134 -7.088182 23.183478 4.241700 -3.901100 15.160000 -84.312943 -0.066596 21.713416 14.657306 -20.508554 -3.149977 -1.366128 -2.194388 5.573493 -7.125000 0.000000 0.000000 84.047247 2.259848 15.231878 -15.018876 22.193846 -3.128349 0.378760 -0.192337 11.257357 7.125000 0.000000 0.000000 
-11.304993 17.883427 -9.733048 -3.122138 35.273189 0.118358 -9.535501 -8.435869 -19.685751 4.943522 14.120227 44.286505 0.075145 -1.309840 4.615237 0.029500 -1.108700 -3.047900 27.003010 0.114753 -5.470754 -0.920311 -7.024837 21.625781 0.501686 -4.112757 -5.775405 -0.474800 -4.419000 12.258500 2.146530 1.351731 1.571395 -0.639226 0.617390 -4.442758 6.281656 -7.131996 23.250684 4.387000 -3.932900 15.218800 -84.296681 -0.061620 21.863327 14.735804 -20.616298 -3.187972 -1.344678 -2.187454 5.552520 -7.125000 0.000000 0.000000 83.977848 2.247670 15.396305 -15.016387 22.196752 -3.128874 0.379904 -0.200592 11.182926 7.125000 0.000000 0.000000 
-11.306095 17.881021 -9.720018 -3.221374 35.305702 -0.007180 -9.381090 -8.586865 -20.222654 5.179365 14.338111 45.132686 0.090566 -1.499484 4.996578 0.035000 -1.207400 -3.319800 27.147680 0.109140 -5.300485 -0.904011 -6.974835 21.498153 0.522915 -4.203137 -5.759723 -0.459900 -4.350300 12.064300 2.133150 1.498274 1.574993 -0.813880 0.690452 -4.576870 6.316939 -7.225462 23.276141 4.403200 -3.974900 15.204700 -84.210585 0.183336 22.485418 14.894253 -20.859062 -3.267971 -1.350141 -2.235596 5.036230 -7.125000 0.000000 0.000000 83.912372 2.087928 15.472991 -15.031614 22.222063 -3.135538 0.386304 -0.208250 11.170059 7.125000 0.000000 0.000000 
-11.303088 17.877213 -9.704584 -3.174385 35.388019 -0.058613 -9.400097 -8.614809 -20.688911 5.377763 14.519170 45.855762 0.123127 -1.859401 5.032565 0.061300 -1.597400 -4.394400 27.127521 -0.100752 -5.137775 -0.882206 -6.915052 21.338006 0.522097 -4.222863 -5.933312 -0.411600 -4.118500 11.410200 2.103240 1.575852 1.614793 -0.941783 0.733253 -4.603129 6.259257 -7.227968 23.241635 4.363400 -3.974000 15.139800 -84.151461 0.340213 22.839351 15.032125 -21.067470 -3.337744 -1.347470 -2.250366 4.651595 -7.125000 0.000000 0.000000 83.865617 1.977117 15.615333 -15.084271 22.296740 -3.156892 0.397345 -0.208190 11.178512 7.125000 0.000000 0.000000 
-11.298478 17.879217 -9.684338 -3.170937 35.445027 -0.101594 -9.401617 -8.637562 -21.188250 5.528972 14.660179 46.408995 0.161862 -2.274995 4.983989 0.083400 -1.863000 -5.127100 27.137289 -0.368194 -4.991513 -0.855283 -6.839125 21.132245 0.515586 -4.207712 -6.045208 -0.369700 -3.905500 10.810900 2.040070 1.677058 1.666241 -1.188333 0.786817 -4.573643 6.290525 -7.268187 23.289662 4.355900 -3.971400 15.175500 -84.069359 0.285259 22.792040 15.083605 -21.139018 -3.362097 -1.336949 -2.238130 4.783261 -7.125000 0.000000 0.000000 83.863779 1.959902 15.901505 -15.126357 22.355661 -3.174233 0.408688 -0.198412 10.741684 7.125000 0.000000 0.000000 
-11.295070 17.882024 -9.661186 -3.294046 35.462148 -0.193012 -9.267758 -8.619047 -21.710196 5.628460 14.758723 46.770364 0.208259 -2.743738 4.958673 0.088200 -1.915400 -5.271800 27.294524 -0.415086 -4.769608 -0.821772 -6.752329 20.892878 0.547591 -4.367449 -6.157533 -0.320000 -3.635900 10.054600 1.987413 1.819961 1.736375 -1.453532 0.859341 -4.487849 6.405855 -7.430022 23.423922 4.381200 -4.013400 15.325100 -83.969717 0.086926 22.805262 15.089975 -21.141345 -3.362887 -1.347087 -2.237813 4.867370 -7.125000 0.000000 0.000000 83.908001 2.045529 15.927891 -15.144924 22.389392 -3.183921 0.407690 -0.193745 10.402197 7.125000 0.000000 0.000000 
